# xmcd CD database file
#
# Track frame offsets:
#	150
#	1640
#	12867
#	16547
#	39990
#	55887
#	77530
#	96592
#	115375
#	131335
#	147602
#	165592
#
# Disc length: 2434 seconds
#
# Revision: 2
# Processed by: cddbd v1.5.1PL0 Copyright (c) Steve Scherf et al.
# Submitted via: CDex 1.51
#
DISCID=8809800c
DTITLE=B.B. King - Blues Is King
DYEAR=1991
DGENRE=Blues
TTITLE0=Introduction
TTITLE1=Waitin' On You
TTITLE2=Introduction
TTITLE3=Gamblers' Blues
TTITLE4=Tired of Your Jive
TTITLE5=Night Life
TTITLE6=Buzz Me
TTITLE7=Don't Answer The Door
TTITLE8=Blind Love
TTITLE9=I Know What You're Puttin' Down
TTITLE10=Baby Get Lost
TTITLE11=Gonna Leep On Loving You
EXTD=YEAR: 1991
EXTT0=
EXTT1=
EXTT2=
EXTT3=
EXTT4=
EXTT5=
EXTT6=
EXTT7=
EXTT8=
EXTT9=
EXTT10=
EXTT11=
PLAYORDER=
